<mxfile host="app.diagrams.net" modified="2023-12-14T13:26:24.287Z" agent="Mozilla/5.0 (Windows NT 10.0; Win64; x64) AppleWebKit/537.36 (KHTML, like Gecko) Chrome/120.0.0.0 Safari/537.36" etag="wu_7iJA2QUM-iKODwdXJ" version="22.1.8" type="github">
  <diagram name="Сторінка-1" id="fXAx3Dq5Cu45CHVRtG5E">
    <mxGraphModel dx="1235" dy="624" grid="1" gridSize="10" guides="1" tooltips="1" connect="1" arrows="1" fold="1" page="1" pageScale="1" pageWidth="827" pageHeight="1169" math="0" shadow="0">
      <root>
        <mxCell id="0" />
        <mxCell id="1" parent="0" />
        <mxCell id="3_hwkQ3MLmRGUa46AR0--3" style="edgeStyle=orthogonalEdgeStyle;rounded=0;orthogonalLoop=1;jettySize=auto;html=1;exitX=0.5;exitY=1;exitDx=0;exitDy=0;entryX=0.5;entryY=0;entryDx=0;entryDy=0;" edge="1" parent="1" source="3_hwkQ3MLmRGUa46AR0--1">
          <mxGeometry relative="1" as="geometry">
            <mxPoint x="122.5" y="190" as="targetPoint" />
          </mxGeometry>
        </mxCell>
        <mxCell id="3_hwkQ3MLmRGUa46AR0--1" value="Start" style="ellipse;whiteSpace=wrap;html=1;" vertex="1" parent="1">
          <mxGeometry x="62.5" y="80" width="120" height="80" as="geometry" />
        </mxCell>
        <mxCell id="3_hwkQ3MLmRGUa46AR0--5" style="edgeStyle=orthogonalEdgeStyle;rounded=0;orthogonalLoop=1;jettySize=auto;html=1;exitX=0.5;exitY=1;exitDx=0;exitDy=0;entryX=0.5;entryY=0;entryDx=0;entryDy=0;" edge="1" parent="1" target="3_hwkQ3MLmRGUa46AR0--4">
          <mxGeometry relative="1" as="geometry">
            <mxPoint x="122.5" y="240" as="sourcePoint" />
          </mxGeometry>
        </mxCell>
        <mxCell id="3_hwkQ3MLmRGUa46AR0--2" value="Input string &lt;br&gt;palindrome words:" style="shape=parallelogram;perimeter=parallelogramPerimeter;whiteSpace=wrap;html=1;fixedSize=1;" vertex="1" parent="1">
          <mxGeometry x="50" y="190" width="145" height="50" as="geometry" />
        </mxCell>
        <mxCell id="3_hwkQ3MLmRGUa46AR0--18" style="edgeStyle=orthogonalEdgeStyle;rounded=0;orthogonalLoop=1;jettySize=auto;html=1;exitX=0.5;exitY=1;exitDx=0;exitDy=0;entryX=0.5;entryY=0;entryDx=0;entryDy=0;" edge="1" parent="1" source="3_hwkQ3MLmRGUa46AR0--4" target="3_hwkQ3MLmRGUa46AR0--14">
          <mxGeometry relative="1" as="geometry" />
        </mxCell>
        <mxCell id="3_hwkQ3MLmRGUa46AR0--4" value="bool isWord" style="shape=process;whiteSpace=wrap;html=1;backgroundOutline=1;" vertex="1" parent="1">
          <mxGeometry x="62.5" y="270" width="120" height="60" as="geometry" />
        </mxCell>
        <mxCell id="3_hwkQ3MLmRGUa46AR0--6" value="Finish" style="ellipse;whiteSpace=wrap;html=1;" vertex="1" parent="1">
          <mxGeometry x="62.5" y="430" width="120" height="80" as="geometry" />
        </mxCell>
        <mxCell id="3_hwkQ3MLmRGUa46AR0--9" style="edgeStyle=orthogonalEdgeStyle;rounded=0;orthogonalLoop=1;jettySize=auto;html=1;exitX=0.5;exitY=1;exitDx=0;exitDy=0;entryX=0.5;entryY=0;entryDx=0;entryDy=0;" edge="1" parent="1" source="3_hwkQ3MLmRGUa46AR0--7" target="3_hwkQ3MLmRGUa46AR0--8">
          <mxGeometry relative="1" as="geometry" />
        </mxCell>
        <mxCell id="3_hwkQ3MLmRGUa46AR0--7" value="Start isWord" style="ellipse;whiteSpace=wrap;html=1;" vertex="1" parent="1">
          <mxGeometry x="274" y="80" width="120" height="80" as="geometry" />
        </mxCell>
        <mxCell id="3_hwkQ3MLmRGUa46AR0--11" style="edgeStyle=orthogonalEdgeStyle;rounded=0;orthogonalLoop=1;jettySize=auto;html=1;exitX=0.5;exitY=1;exitDx=0;exitDy=0;entryX=0.5;entryY=0;entryDx=0;entryDy=0;" edge="1" parent="1" source="3_hwkQ3MLmRGUa46AR0--8" target="3_hwkQ3MLmRGUa46AR0--10">
          <mxGeometry relative="1" as="geometry" />
        </mxCell>
        <mxCell id="3_hwkQ3MLmRGUa46AR0--8" value="char* token" style="rounded=1;whiteSpace=wrap;html=1;" vertex="1" parent="1">
          <mxGeometry x="274" y="210" width="120" height="60" as="geometry" />
        </mxCell>
        <mxCell id="3_hwkQ3MLmRGUa46AR0--13" style="edgeStyle=orthogonalEdgeStyle;rounded=0;orthogonalLoop=1;jettySize=auto;html=1;exitX=0.5;exitY=1;exitDx=0;exitDy=0;entryX=0.5;entryY=0;entryDx=0;entryDy=0;" edge="1" parent="1" source="3_hwkQ3MLmRGUa46AR0--10" target="3_hwkQ3MLmRGUa46AR0--12">
          <mxGeometry relative="1" as="geometry" />
        </mxCell>
        <mxCell id="3_hwkQ3MLmRGUa46AR0--10" value="Divide token into words" style="rounded=1;whiteSpace=wrap;html=1;" vertex="1" parent="1">
          <mxGeometry x="274" y="290" width="120" height="60" as="geometry" />
        </mxCell>
        <mxCell id="3_hwkQ3MLmRGUa46AR0--32" style="edgeStyle=orthogonalEdgeStyle;rounded=0;orthogonalLoop=1;jettySize=auto;html=1;exitX=0;exitY=0.5;exitDx=0;exitDy=0;entryX=0;entryY=0.5;entryDx=0;entryDy=0;" edge="1" parent="1" source="3_hwkQ3MLmRGUa46AR0--12" target="3_hwkQ3MLmRGUa46AR0--27">
          <mxGeometry relative="1" as="geometry">
            <Array as="points">
              <mxPoint x="240" y="420" />
              <mxPoint x="240" y="745" />
            </Array>
          </mxGeometry>
        </mxCell>
        <mxCell id="3_hwkQ3MLmRGUa46AR0--12" value="while token != null" style="rhombus;whiteSpace=wrap;html=1;" vertex="1" parent="1">
          <mxGeometry x="261" y="370" width="146" height="80" as="geometry" />
        </mxCell>
        <mxCell id="3_hwkQ3MLmRGUa46AR0--19" style="edgeStyle=orthogonalEdgeStyle;rounded=0;orthogonalLoop=1;jettySize=auto;html=1;exitX=0.5;exitY=1;exitDx=0;exitDy=0;entryX=0.5;entryY=0;entryDx=0;entryDy=0;" edge="1" parent="1" source="3_hwkQ3MLmRGUa46AR0--14" target="3_hwkQ3MLmRGUa46AR0--6">
          <mxGeometry relative="1" as="geometry">
            <mxPoint x="123" y="420" as="targetPoint" />
          </mxGeometry>
        </mxCell>
        <mxCell id="3_hwkQ3MLmRGUa46AR0--14" value="bool isPalindrome" style="shape=process;whiteSpace=wrap;html=1;backgroundOutline=1;" vertex="1" parent="1">
          <mxGeometry x="62.5" y="350" width="120" height="60" as="geometry" />
        </mxCell>
        <mxCell id="3_hwkQ3MLmRGUa46AR0--35" style="edgeStyle=orthogonalEdgeStyle;rounded=0;orthogonalLoop=1;jettySize=auto;html=1;exitX=0;exitY=0.5;exitDx=0;exitDy=0;entryX=0.5;entryY=0;entryDx=0;entryDy=0;" edge="1" parent="1" target="3_hwkQ3MLmRGUa46AR0--22">
          <mxGeometry relative="1" as="geometry">
            <mxPoint x="406.9999999999998" y="470" as="sourcePoint" />
          </mxGeometry>
        </mxCell>
        <mxCell id="3_hwkQ3MLmRGUa46AR0--56" style="edgeStyle=orthogonalEdgeStyle;rounded=0;orthogonalLoop=1;jettySize=auto;html=1;exitX=0.5;exitY=1;exitDx=0;exitDy=0;entryX=0.5;entryY=0;entryDx=0;entryDy=0;" edge="1" parent="1" source="3_hwkQ3MLmRGUa46AR0--15" target="3_hwkQ3MLmRGUa46AR0--16">
          <mxGeometry relative="1" as="geometry" />
        </mxCell>
        <mxCell id="3_hwkQ3MLmRGUa46AR0--15" value="if isPalindrome" style="rhombus;whiteSpace=wrap;html=1;" vertex="1" parent="1">
          <mxGeometry x="411" y="430" width="116" height="80" as="geometry" />
        </mxCell>
        <mxCell id="3_hwkQ3MLmRGUa46AR0--26" style="edgeStyle=orthogonalEdgeStyle;rounded=0;orthogonalLoop=1;jettySize=auto;html=1;exitX=0.5;exitY=1;exitDx=0;exitDy=0;entryX=0.5;entryY=0;entryDx=0;entryDy=0;" edge="1" parent="1" target="3_hwkQ3MLmRGUa46AR0--22">
          <mxGeometry relative="1" as="geometry">
            <mxPoint x="467" y="590" as="sourcePoint" />
          </mxGeometry>
        </mxCell>
        <mxCell id="3_hwkQ3MLmRGUa46AR0--16" value="palindrome words += token" style="rounded=1;whiteSpace=wrap;html=1;" vertex="1" parent="1">
          <mxGeometry x="407" y="540" width="120" height="60" as="geometry" />
        </mxCell>
        <mxCell id="3_hwkQ3MLmRGUa46AR0--28" style="edgeStyle=orthogonalEdgeStyle;rounded=0;orthogonalLoop=1;jettySize=auto;html=1;exitX=0.5;exitY=1;exitDx=0;exitDy=0;entryX=0.5;entryY=0;entryDx=0;entryDy=0;" edge="1" parent="1" source="3_hwkQ3MLmRGUa46AR0--22" target="3_hwkQ3MLmRGUa46AR0--27">
          <mxGeometry relative="1" as="geometry" />
        </mxCell>
        <mxCell id="3_hwkQ3MLmRGUa46AR0--22" value="Divide token into words" style="rounded=1;whiteSpace=wrap;html=1;" vertex="1" parent="1">
          <mxGeometry x="274" y="630" width="120" height="60" as="geometry" />
        </mxCell>
        <mxCell id="3_hwkQ3MLmRGUa46AR0--30" style="edgeStyle=orthogonalEdgeStyle;rounded=0;orthogonalLoop=1;jettySize=auto;html=1;exitX=0.5;exitY=1;exitDx=0;exitDy=0;entryX=0.5;entryY=0;entryDx=0;entryDy=0;" edge="1" parent="1" source="3_hwkQ3MLmRGUa46AR0--27" target="3_hwkQ3MLmRGUa46AR0--29">
          <mxGeometry relative="1" as="geometry" />
        </mxCell>
        <mxCell id="3_hwkQ3MLmRGUa46AR0--27" value="Output&lt;br&gt;palindrome words" style="shape=parallelogram;perimeter=parallelogramPerimeter;whiteSpace=wrap;html=1;fixedSize=1;" vertex="1" parent="1">
          <mxGeometry x="261" y="710" width="145" height="50" as="geometry" />
        </mxCell>
        <mxCell id="3_hwkQ3MLmRGUa46AR0--29" value="Finish" style="ellipse;whiteSpace=wrap;html=1;" vertex="1" parent="1">
          <mxGeometry x="274" y="780" width="120" height="80" as="geometry" />
        </mxCell>
        <mxCell id="3_hwkQ3MLmRGUa46AR0--33" value="False" style="text;html=1;strokeColor=none;fillColor=none;align=center;verticalAlign=middle;whiteSpace=wrap;rounded=0;" vertex="1" parent="1">
          <mxGeometry x="220" y="390" width="60" height="30" as="geometry" />
        </mxCell>
        <mxCell id="3_hwkQ3MLmRGUa46AR0--54" style="edgeStyle=orthogonalEdgeStyle;rounded=0;orthogonalLoop=1;jettySize=auto;html=1;exitX=0.25;exitY=1;exitDx=0;exitDy=0;entryX=0.5;entryY=0;entryDx=0;entryDy=0;" edge="1" parent="1" source="3_hwkQ3MLmRGUa46AR0--34" target="3_hwkQ3MLmRGUa46AR0--15">
          <mxGeometry relative="1" as="geometry">
            <Array as="points">
              <mxPoint x="469" y="410" />
            </Array>
          </mxGeometry>
        </mxCell>
        <mxCell id="3_hwkQ3MLmRGUa46AR0--34" value="True" style="text;html=1;strokeColor=none;fillColor=none;align=center;verticalAlign=middle;whiteSpace=wrap;rounded=0;" vertex="1" parent="1">
          <mxGeometry x="394" y="380" width="60" height="30" as="geometry" />
        </mxCell>
        <mxCell id="3_hwkQ3MLmRGUa46AR0--36" value="True" style="text;html=1;strokeColor=none;fillColor=none;align=center;verticalAlign=middle;whiteSpace=wrap;rounded=0;" vertex="1" parent="1">
          <mxGeometry x="467" y="510" width="60" height="30" as="geometry" />
        </mxCell>
        <mxCell id="3_hwkQ3MLmRGUa46AR0--37" value="False" style="text;html=1;strokeColor=none;fillColor=none;align=center;verticalAlign=middle;whiteSpace=wrap;rounded=0;" vertex="1" parent="1">
          <mxGeometry x="360" y="440" width="60" height="30" as="geometry" />
        </mxCell>
        <mxCell id="3_hwkQ3MLmRGUa46AR0--40" style="edgeStyle=orthogonalEdgeStyle;rounded=0;orthogonalLoop=1;jettySize=auto;html=1;exitX=0.5;exitY=1;exitDx=0;exitDy=0;entryX=0.5;entryY=0;entryDx=0;entryDy=0;" edge="1" parent="1" source="3_hwkQ3MLmRGUa46AR0--38" target="3_hwkQ3MLmRGUa46AR0--39">
          <mxGeometry relative="1" as="geometry" />
        </mxCell>
        <mxCell id="3_hwkQ3MLmRGUa46AR0--38" value="Start isPalindrome" style="ellipse;whiteSpace=wrap;html=1;" vertex="1" parent="1">
          <mxGeometry x="560" y="80" width="120" height="80" as="geometry" />
        </mxCell>
        <mxCell id="3_hwkQ3MLmRGUa46AR0--43" style="edgeStyle=orthogonalEdgeStyle;rounded=0;orthogonalLoop=1;jettySize=auto;html=1;exitX=1;exitY=0.5;exitDx=0;exitDy=0;entryX=0.5;entryY=0;entryDx=0;entryDy=0;" edge="1" parent="1" source="3_hwkQ3MLmRGUa46AR0--39" target="3_hwkQ3MLmRGUa46AR0--41">
          <mxGeometry relative="1" as="geometry" />
        </mxCell>
        <mxCell id="3_hwkQ3MLmRGUa46AR0--46" style="edgeStyle=orthogonalEdgeStyle;rounded=0;orthogonalLoop=1;jettySize=auto;html=1;exitX=0.5;exitY=1;exitDx=0;exitDy=0;entryX=0.5;entryY=0;entryDx=0;entryDy=0;" edge="1" parent="1" source="3_hwkQ3MLmRGUa46AR0--39" target="3_hwkQ3MLmRGUa46AR0--45">
          <mxGeometry relative="1" as="geometry" />
        </mxCell>
        <mxCell id="3_hwkQ3MLmRGUa46AR0--39" value="if istart&amp;gt;=end" style="rhombus;whiteSpace=wrap;html=1;" vertex="1" parent="1">
          <mxGeometry x="562" y="180" width="116" height="80" as="geometry" />
        </mxCell>
        <mxCell id="3_hwkQ3MLmRGUa46AR0--41" value="return true" style="rounded=1;whiteSpace=wrap;html=1;" vertex="1" parent="1">
          <mxGeometry x="692" y="250" width="120" height="60" as="geometry" />
        </mxCell>
        <mxCell id="3_hwkQ3MLmRGUa46AR0--42" value="return isPalindrome" style="rounded=1;whiteSpace=wrap;html=1;" vertex="1" parent="1">
          <mxGeometry x="692" y="370" width="120" height="60" as="geometry" />
        </mxCell>
        <mxCell id="3_hwkQ3MLmRGUa46AR0--44" value="True" style="text;html=1;strokeColor=none;fillColor=none;align=center;verticalAlign=middle;whiteSpace=wrap;rounded=0;" vertex="1" parent="1">
          <mxGeometry x="662" y="195" width="60" height="30" as="geometry" />
        </mxCell>
        <mxCell id="3_hwkQ3MLmRGUa46AR0--48" style="edgeStyle=orthogonalEdgeStyle;rounded=0;orthogonalLoop=1;jettySize=auto;html=1;exitX=1;exitY=0.5;exitDx=0;exitDy=0;entryX=0.5;entryY=0;entryDx=0;entryDy=0;" edge="1" parent="1" source="3_hwkQ3MLmRGUa46AR0--45" target="3_hwkQ3MLmRGUa46AR0--42">
          <mxGeometry relative="1" as="geometry" />
        </mxCell>
        <mxCell id="3_hwkQ3MLmRGUa46AR0--51" style="edgeStyle=orthogonalEdgeStyle;rounded=0;orthogonalLoop=1;jettySize=auto;html=1;exitX=0.5;exitY=1;exitDx=0;exitDy=0;entryX=0.5;entryY=0;entryDx=0;entryDy=0;" edge="1" parent="1" source="3_hwkQ3MLmRGUa46AR0--45" target="3_hwkQ3MLmRGUa46AR0--50">
          <mxGeometry relative="1" as="geometry" />
        </mxCell>
        <mxCell id="3_hwkQ3MLmRGUa46AR0--45" value="if istart&amp;gt;=end" style="rhombus;whiteSpace=wrap;html=1;" vertex="1" parent="1">
          <mxGeometry x="562" y="300" width="116" height="80" as="geometry" />
        </mxCell>
        <mxCell id="3_hwkQ3MLmRGUa46AR0--47" value="False" style="text;html=1;strokeColor=none;fillColor=none;align=center;verticalAlign=middle;whiteSpace=wrap;rounded=0;" vertex="1" parent="1">
          <mxGeometry x="570" y="260" width="60" height="30" as="geometry" />
        </mxCell>
        <mxCell id="3_hwkQ3MLmRGUa46AR0--49" value="True" style="text;html=1;strokeColor=none;fillColor=none;align=center;verticalAlign=middle;whiteSpace=wrap;rounded=0;" vertex="1" parent="1">
          <mxGeometry x="662" y="310" width="60" height="30" as="geometry" />
        </mxCell>
        <mxCell id="3_hwkQ3MLmRGUa46AR0--50" value="return true" style="rounded=1;whiteSpace=wrap;html=1;" vertex="1" parent="1">
          <mxGeometry x="560" y="415" width="120" height="60" as="geometry" />
        </mxCell>
        <mxCell id="3_hwkQ3MLmRGUa46AR0--52" value="False" style="text;html=1;strokeColor=none;fillColor=none;align=center;verticalAlign=middle;whiteSpace=wrap;rounded=0;" vertex="1" parent="1">
          <mxGeometry x="570" y="385" width="60" height="30" as="geometry" />
        </mxCell>
      </root>
    </mxGraphModel>
  </diagram>
</mxfile>
